<?xml version="1.0" encoding="UTF-8"?>
<svg id="Calque_2" data-name="Calque 2" xmlns="http://www.w3.org/2000/svg" viewBox="0 0 212.17 68.64">
  <defs>
    <style>
      .cls-1 {
        fill: #1f1f1f;
      }
    </style>
  </defs>
  <g id="Logo">
    <g id="logo-bcf-B">
      <g>
        <g>
          <path class="cls-1" d="M83.33,31.89V13.77h6.52c4.25,0,6.38,1.49,6.38,4.48,0,.87-.17,1.66-.52,2.39-.35.73-.84,1.26-1.48,1.61,1.83.77,2.75,2.2,2.75,4.3,0,1.82-.6,3.16-1.79,4.04s-2.76,1.31-4.71,1.31h-7.15ZM85.88,15.92v5.6h4.38c2.27,0,3.4-.98,3.4-2.92,0-.9-.3-1.57-.9-2.01-.6-.44-1.43-.66-2.5-.66h-4.38ZM85.88,23.54v6.2h4.62c2.57,0,3.85-1.06,3.85-3.18,0-1.05-.32-1.82-.97-2.3s-1.66-.73-3.03-.73h-4.47Z"/>
          <path class="cls-1" d="M101.08,20.02c1.28-1.2,2.79-1.8,4.53-1.8s3.24.6,4.53,1.8,1.93,2.93,1.93,5.2-.64,4-1.93,5.2c-1.28,1.2-2.79,1.8-4.53,1.8s-3.24-.6-4.53-1.8c-1.28-1.2-1.92-2.93-1.92-5.2s.64-4,1.92-5.2ZM101.58,25.22c0,1.68.38,2.94,1.15,3.76.77.83,1.72,1.24,2.88,1.24s2.09-.43,2.86-1.28c.78-.85,1.16-2.09,1.16-3.72s-.38-2.94-1.15-3.76c-.77-.83-1.72-1.24-2.88-1.24s-2.11.4-2.88,1.21c-.77.81-1.15,2.07-1.15,3.79Z"/>
          <path class="cls-1" d="M121.48,18.39v2.42c-.42-.07-.84-.1-1.28-.1-1.07,0-1.86.32-2.38.96-.52.64-.77,1.7-.77,3.16v7.05h-2.28v-13.45h2.22v2.35c.68-1.53,1.95-2.34,3.8-2.42.27,0,.49,0,.67.02Z"/>
          <path class="cls-1" d="M132.63,20.56v-6.8h2.28v18.12h-2.28v-2.02c-.9,1.57-2.37,2.35-4.4,2.35-1.62,0-2.98-.63-4.09-1.89-1.11-1.26-1.66-2.96-1.66-5.11s.55-3.83,1.66-5.1c1.11-1.27,2.47-1.9,4.09-1.9,2.03,0,3.5.78,4.4,2.35ZM131.59,28.99c.76-.85,1.14-2.11,1.14-3.77s-.38-2.93-1.14-3.78c-.76-.85-1.69-1.27-2.79-1.27-1.18,0-2.12.45-2.81,1.34-.69.89-1.04,2.13-1.04,3.71s.35,2.82,1.04,3.71c.69.89,1.63,1.34,2.81,1.34,1.1,0,2.03-.42,2.79-1.27Z"/>
          <path class="cls-1" d="M157.5,26.12h2.47c-.38,1.95-1.28,3.45-2.7,4.51-1.42,1.06-3.13,1.59-5.15,1.59-2.55,0-4.56-.87-6.03-2.61-1.47-1.74-2.2-4.01-2.2-6.81s.77-5.06,2.3-6.77c1.53-1.72,3.58-2.58,6.12-2.58,1.9,0,3.53.54,4.9,1.61,1.37,1.07,2.25,2.57,2.65,4.49h-2.47c-.27-1.18-.86-2.14-1.76-2.86s-2.05-1.09-3.44-1.09c-1.67,0-3.03.63-4.1,1.9s-1.6,3.03-1.6,5.3.53,4.05,1.6,5.34c1.07,1.29,2.46,1.94,4.18,1.94,1.4,0,2.54-.35,3.44-1.06.89-.71,1.49-1.67,1.79-2.89Z"/>
          <path class="cls-1" d="M166.41,32.22c-1.32,0-2.42-.35-3.3-1.04-.88-.69-1.32-1.64-1.32-2.84,0-.77.2-1.43.61-1.98.41-.55,1.04-1,1.9-1.36.86-.36,1.8-.64,2.81-.84,1.02-.2,2.28-.38,3.78-.55v-.33c0-2.18-1.02-3.27-3.05-3.27-.93,0-1.67.23-2.2.7s-.82,1.12-.88,1.97h-2.35c.1-1.38.68-2.48,1.74-3.3,1.06-.82,2.28-1.23,3.66-1.23,1.85,0,3.21.45,4.07,1.35s1.29,2.3,1.28,4.2l-.03,3.1c-.02,2.18.1,3.88.35,5.08h-2.3c-.1-.65-.16-1.27-.18-1.85-.85,1.45-2.38,2.18-4.6,2.18ZM171.06,26.27v-.85c-2.29.22-3.98.53-5.09.95-1.11.42-1.66,1.06-1.66,1.92,0,.65.23,1.17.7,1.55s1.1.57,1.9.57c1.2,0,2.19-.32,2.97-.98.78-.65,1.18-1.71,1.18-3.17Z"/>
          <path class="cls-1" d="M185.78,20.56v-6.8h2.27v18.12h-2.27v-2.02c-.9,1.57-2.37,2.35-4.4,2.35-1.62,0-2.98-.63-4.09-1.89-1.11-1.26-1.66-2.96-1.66-5.11s.55-3.83,1.66-5.1c1.11-1.27,2.47-1.9,4.09-1.9,2.03,0,3.5.78,4.4,2.35ZM184.74,28.99c.76-.85,1.14-2.11,1.14-3.77s-.38-2.93-1.14-3.78c-.76-.85-1.69-1.27-2.79-1.27-1.18,0-2.12.45-2.81,1.34-.69.89-1.04,2.13-1.04,3.71s.35,2.82,1.04,3.71,1.63,1.34,2.81,1.34c1.1,0,2.03-.42,2.79-1.27Z"/>
          <path class="cls-1" d="M198.35,18.39v2.42c-.42-.07-.84-.1-1.28-.1-1.07,0-1.86.32-2.38.96-.52.64-.78,1.7-.78,3.16v7.05h-2.28v-13.45h2.23v2.35c.68-1.53,1.95-2.34,3.8-2.42.27,0,.49,0,.68.02Z"/>
          <path class="cls-1" d="M212.15,25.92h-10.35c.03,1.37.46,2.43,1.29,3.18.83.75,1.78,1.12,2.86,1.12,1.8,0,3.03-.74,3.68-2.23h2.35c-.32,1.22-1.01,2.23-2.08,3.02s-2.38,1.2-3.95,1.2c-2.07,0-3.68-.66-4.85-1.98-1.17-1.32-1.75-3-1.75-5.05s.62-3.79,1.85-5.06c1.23-1.27,2.79-1.91,4.68-1.91,2.02,0,3.6.74,4.75,2.21,1.15,1.48,1.66,3.3,1.52,5.49ZM205.88,20.17c-1.08,0-2.01.32-2.76.95s-1.19,1.58-1.29,2.85h7.93c-.04-1.02-.4-1.9-1.1-2.66-.7-.76-1.62-1.14-2.77-1.14Z"/>
        </g>
        <g>
          <path class="cls-1" d="M84.81,42.84c0-.44.03-.81.1-1.12.07-.31.19-.55.38-.74.19-.19.44-.32.77-.41.33-.09.74-.13,1.25-.13h.88v1.14h-.62c-.35,0-.62.01-.82.04-.2.03-.35.09-.45.19s-.17.24-.2.43c-.03.19-.05.45-.05.78v1.16h2.14v1.08h-2.14v9.68h-1.24v-9.68h-1.48v-1.08h1.48v-1.34Z"/>
          <path class="cls-1" d="M91.25,40.44v1.98h-1.24v-1.98h1.24ZM91.25,44.18v10.76h-1.24v-10.76h1.24Z"/>
          <path class="cls-1" d="M95.49,54.94h-1.24v-14.5h1.24v14.5Z"/>
          <path class="cls-1" d="M99.73,54.94h-1.24v-10.76h1.24v1.82c.13-.25.29-.5.48-.74.19-.24.42-.45.69-.64s.59-.34.95-.45c.36-.11.78-.17,1.26-.17.87,0,1.55.18,2.06.55.51.37.87.9,1.1,1.59.41-.68.9-1.21,1.47-1.58.57-.37,1.29-.56,2.17-.56,1.21,0,2.09.36,2.62,1.09.53.73.8,1.75.8,3.07v6.78h-1.24v-6.44c0-.51-.03-.97-.1-1.38s-.19-.77-.37-1.07c-.18-.3-.43-.53-.76-.69-.33-.16-.75-.24-1.27-.24-.44,0-.85.09-1.22.28-.37.19-.7.45-.97.79s-.49.74-.64,1.21c-.15.47-.23.99-.23,1.56v5.98h-1.24v-6.44c0-.51-.03-.97-.1-1.38-.07-.41-.19-.77-.37-1.07-.18-.3-.43-.53-.76-.69s-.75-.24-1.27-.24c-.44,0-.85.09-1.22.28-.37.19-.7.45-.97.79-.27.34-.49.74-.64,1.21-.15.47-.23.99-.23,1.56v5.98Z"/>
          <path class="cls-1" d="M122.45,47.12c-.13-.64-.47-1.14-1.01-1.5-.54-.36-1.19-.54-1.95-.54-.29,0-.6.03-.92.09s-.62.16-.89.3c-.27.14-.5.32-.67.55s-.26.5-.26.82c0,.53.19.95.56,1.24s.86.49,1.46.6l1.52.28c.44.08.88.18,1.32.31.44.13.84.3,1.2.52.36.22.65.5.87.85.22.35.33.77.33,1.28,0,.53-.11,1-.34,1.41s-.53.75-.92,1.03c-.39.28-.84.49-1.36.63-.52.14-1.07.21-1.66.21s-1.09-.07-1.59-.21c-.5-.14-.95-.36-1.35-.65-.4-.29-.73-.66-1-1.11-.27-.45-.44-.98-.52-1.59h1.3c.05.43.18.79.37,1.1.19.31.44.56.73.76.29.2.62.35.99.45.37.1.76.15,1.17.15.32,0,.65-.04,1-.11.35-.07.66-.19.95-.34.29-.15.52-.36.7-.61s.27-.56.27-.92c0-.32-.07-.59-.21-.81-.14-.22-.33-.4-.57-.55-.24-.15-.52-.27-.85-.37-.33-.1-.67-.18-1.03-.25l-1.68-.32c-.39-.08-.76-.19-1.11-.34-.35-.15-.66-.34-.93-.58-.27-.24-.48-.52-.64-.84-.16-.32-.24-.69-.24-1.12s.1-.82.3-1.18c.2-.36.48-.67.85-.94.37-.27.8-.47,1.31-.62.51-.15,1.06-.22,1.66-.22s1.1.08,1.58.25c.48.17.9.39,1.26.68.36.29.65.62.87,1,.22.38.36.78.43,1.21h-1.3Z"/>
        </g>
      </g>
      <path class="cls-1" d="M59.95,0H8.69C3.9,0,0,3.9,0,8.69v51.26c0,4.79,3.9,8.69,8.69,8.69h51.26c4.79,0,8.69-3.9,8.69-8.69V8.69c0-4.79-3.9-8.69-8.69-8.69ZM67.41,42.36v11.92c-.15-1.09-.26-1.91-.26-1.91-1.5-9.37-4.87-27.19-6.05-33.38-.34-1.79-1.94-3.12-3.76-3-.31.02-.64.08-.98.17-1.09.31-2.41.93-3.75,1.86-.72.5-1.45,1.09-2.14,1.76-.1.1-.21.2-.31.31-.6.62-1.17,1.3-1.7,2.05-1.18,1.69-2.1,3.71-2.45,6.06-.29,1.92-.27,10.32,1.42,39.22h-1.95c-.44-7.5-.78-13.96-1.04-19.38h-21.28s-1.3,11,3.79,15.17c.32.27.66.51,1,.75.07.05.14.1.21.14.33.22.68.44,1.02.64.06.03.12.07.18.1.33.18.66.36,1,.52.05.02.09.05.14.07.37.17.74.34,1.11.49.07.03.15.06.22.09.38.15.76.29,1.14.42.01,0,.02,0,.04.01.38.13.77.25,1.15.36.06.02.11.03.17.05.39.11.77.21,1.16.3.05.01.09.02.14.03.39.09.78.17,1.17.24H8.74c-4.15,0-7.51-3.36-7.51-7.51V27.78c.24,4.08,1.24,10.06,4.76,14.37,2.75,3.36,8.49,3.94,12.07,3.94,1.83,0,3.1-.15,3.1-.15v-21.28c-5.52-.26-12.13-.61-19.82-1.07-.03,0-.07,0-.1,0h0v-1.96c29.4,1.73,37.93,1.75,39.88,1.46,2.28-.34,4.26-1.22,5.92-2.35,1.74-1.19,3.13-2.66,4.17-4.13.97-1.38,1.62-2.75,1.94-3.86.13-.45.18-.87.18-1.27,0-.02,0-.03,0-.05-.02-1.7-1.33-3.11-2.99-3.42-6.19-1.18-24.02-4.55-33.4-6.05-1.13-.18-2.85-.42-5.09-.72h48.07c4.15,0,7.51,3.36,7.51,7.51v33.62Z"/>
    </g>
  </g>
</svg>
